<svg width="25" height="24" viewBox="0 0 25 24" fill="none" xmlns="http://www.w3.org/2000/svg">
<g clip-path="url(#clip0_70_221)">
<path d="M24.8753 11.9998C24.8753 18.5951 19.5291 23.9413 12.9339 23.9413C6.33874 23.9413 0.992432 18.5951 0.992432 11.9998C0.992432 5.40466 6.33874 0.0583496 12.9339 0.0583496C19.5291 0.0583496 24.8753 5.40466 24.8753 11.9998Z" fill="#F7931A"/>
<path d="M15.8333 15.4898C15.7846 15.6552 15.7035 15.8092 15.5948 15.943C15.4861 16.0768 15.352 16.1877 15.2001 16.2693C15.0488 16.3518 14.8825 16.4034 14.7111 16.4212C14.5396 16.439 14.3663 16.4226 14.2012 16.3729L10.8384 15.3714L11.5876 12.8562L14.9502 13.8578H14.9503C15.6436 14.0643 16.0399 14.7964 15.8333 15.4898ZM16.9675 10.3353C17.0499 10.4867 17.1015 10.653 17.1192 10.8245C17.137 10.9959 17.1206 11.1692 17.071 11.3343C16.8644 12.0275 16.1319 12.4235 15.439 12.2174H15.4388L12.0761 11.2159L12.8251 8.70065L16.1879 9.70218C16.3533 9.75093 16.5073 9.83199 16.6411 9.94067C16.7749 10.0493 16.8858 10.1835 16.9675 10.3353ZM18.4728 9.52091C18.0884 8.81051 17.4504 8.29226 16.6764 8.06179L16.2315 7.92935L16.8544 5.83793L15.2563 5.36194L14.6334 7.45337L13.269 7.047L13.8919 4.95557L13.5091 4.84153L11.9581 4.37964L11.3577 6.39559L9.46763 5.83267L8.93421 7.62389L10.8243 8.18693L8.8825 14.7067L6.99241 14.1438L6.45898 15.9351L8.34896 16.4979L7.84228 18.1995L8.22501 18.3135L9.77596 18.7754L10.3052 16.9984L11.6729 17.4057L11.1436 19.1829L12.7353 19.6569L13.2645 17.8798L13.7126 18.0132C13.994 18.0973 14.2862 18.1401 14.5799 18.1404C15.0755 18.1404 15.5664 18.0173 16.0145 17.7747C16.7249 17.3903 17.2431 16.7524 17.4737 15.9783C17.7161 15.164 17.5964 14.3275 17.2108 13.6389C17.9108 13.2736 18.4686 12.6375 18.7113 11.8229C18.9419 11.0487 18.8571 10.2312 18.4728 9.52091Z" fill="white"/>
</g>
<defs>
<clipPath id="clip0_70_221">
<rect width="24" height="24" fill="white" transform="translate(0.975098)"/>
</clipPath>
</defs>
</svg>
