<svg width="26" height="26" viewBox="0 0 26 26" fill="none" xmlns="http://www.w3.org/2000/svg">
<path d="M6.29772 2.84399C6.32427 2.84399 6.35057 2.84922 6.3751 2.85939C6.39964 2.86955 6.42193 2.88445 6.44071 2.90322C6.45949 2.922 6.47438 2.94429 6.48454 2.96883C6.49471 2.99336 6.49994 3.01966 6.49994 3.04622V5.26199C8.24938 3.79265 10.4451 2.95948 12.7289 2.89839C15.0127 2.8373 17.2498 3.55191 19.0753 4.92563C20.9008 6.29935 22.207 8.25112 22.7807 10.4625C23.3544 12.674 23.1618 15.0145 22.2343 17.1024C21.3068 19.1903 19.6992 20.9024 17.6738 21.9592C15.6483 23.0161 13.3244 23.3554 11.0813 22.9218C8.83821 22.4882 6.80821 21.3073 5.32248 19.5718C3.83674 17.8362 2.98295 15.6485 2.90038 13.3653L2.89605 13.2021C2.89485 13.1506 2.91381 13.1006 2.94887 13.0629C2.98394 13.0251 3.03236 13.0025 3.08383 12.9999H4.52249C4.57442 12.9998 4.62438 13.0197 4.66203 13.0555C4.69967 13.0913 4.72212 13.1401 4.72472 13.192V13.2036C4.77085 15.0673 5.44486 16.8609 6.63756 18.2938C7.83025 19.7266 9.47178 20.7149 11.2962 21.0984C13.1207 21.4819 15.0211 21.2382 16.6898 20.4068C18.3585 19.5755 19.6976 18.2051 20.4902 16.5176C21.2828 14.8302 21.4826 12.9246 21.057 11.1095C20.6315 9.29441 19.6056 7.67615 18.1455 6.51686C16.6855 5.35757 14.8768 4.72516 13.0125 4.72208C11.1482 4.719 9.33747 5.34543 7.8736 6.49988H9.9536C9.98016 6.49988 10.0065 6.50511 10.031 6.51528C10.0555 6.52544 10.0778 6.54033 10.0966 6.55911C10.1154 6.57789 10.1303 6.60018 10.1404 6.62472C10.1506 6.64925 10.1558 6.67555 10.1558 6.70211V8.12488C10.1558 8.15144 10.1506 8.17774 10.1404 8.20227C10.1303 8.22681 10.1154 8.2491 10.0966 8.26788C10.0778 8.28665 10.0555 8.30155 10.031 8.31171C10.0065 8.32187 9.98016 8.32711 9.9536 8.32711H4.87494C4.84838 8.32711 4.82209 8.32187 4.79755 8.31171C4.77302 8.30155 4.75072 8.28665 4.73195 8.26788C4.71317 8.2491 4.69827 8.22681 4.68811 8.20227C4.67795 8.17774 4.67272 8.15144 4.67272 8.12488V3.04622C4.67272 3.01966 4.67795 2.99336 4.68811 2.96883C4.69827 2.94429 4.71317 2.922 4.73195 2.90322C4.75072 2.88445 4.77302 2.86955 4.79755 2.85939C4.82209 2.84922 4.84838 2.84399 4.87494 2.84399H6.29627H6.29772Z" fill="#FFA318"/>
<path d="M13.5835 8.93821C13.6101 8.93821 13.6364 8.94344 13.6609 8.95361C13.6854 8.96377 13.7077 8.97866 13.7265 8.99744C13.7453 9.01622 13.7602 9.03851 13.7703 9.06305C13.7805 9.08758 13.7857 9.11388 13.7857 9.14043V13.1878H17.5153C17.542 13.1878 17.5684 13.193 17.593 13.2033C17.6176 13.2136 17.64 13.2286 17.6588 13.2475C17.6776 13.2664 17.6925 13.2889 17.7025 13.3136C17.7126 13.3383 17.7177 13.3648 17.7175 13.3914V14.8128C17.7177 14.8394 17.7126 14.8659 17.7025 14.8906C17.6925 14.9153 17.6776 14.9378 17.6588 14.9567C17.64 14.9756 17.6176 14.9907 17.593 15.0009C17.5684 15.0112 17.542 15.0164 17.5153 15.0164H12.1622C12.1356 15.0164 12.1093 15.0112 12.0848 15.001C12.0603 14.9909 12.038 14.976 12.0192 14.9572C12.0004 14.9384 11.9855 14.9161 11.9754 14.8916C11.9652 14.8671 11.96 14.8408 11.96 14.8142V9.13899C11.96 9.08536 11.9813 9.03392 12.0192 8.996C12.0571 8.95807 12.1086 8.93677 12.1622 8.93677H13.5835V8.93821Z" fill="#FFA318"/>
</svg>
