<svg width="21" height="20" viewBox="0 0 21 20" fill="none" xmlns="http://www.w3.org/2000/svg">
<path d="M10.4976 2.22632C11.5528 2.22632 12.5759 2.43276 13.538 2.8396C14.4681 3.23296 15.3038 3.79663 16.0218 4.5146C16.7397 5.23257 17.3032 6.06831 17.6968 6.99839C18.1038 7.9605 18.3101 8.98355 18.3101 10.0388C18.3101 11.0941 18.1036 12.1171 17.6968 13.0792C17.3034 14.0093 16.7399 14.8451 16.0218 15.563C15.3038 16.281 14.4681 16.8445 13.538 17.238C12.5759 17.6451 11.5528 17.8513 10.4976 17.8513C9.44229 17.8513 8.41924 17.6449 7.45713 17.238C6.52705 16.8447 5.69131 16.2812 4.97334 15.563C4.25537 14.8451 3.69189 14.0093 3.29834 13.0792C2.89131 12.1171 2.68506 11.0941 2.68506 10.0388C2.68506 8.98355 2.8915 7.9605 3.29834 6.99839C3.6917 6.06831 4.25537 5.23257 4.97334 4.5146C5.69131 3.79663 6.52705 3.23315 7.45713 2.8396C8.41924 2.43257 9.44209 2.22632 10.4976 2.22632ZM10.4976 0.663818C5.31982 0.663818 1.12256 4.86108 1.12256 10.0388C1.12256 15.2166 5.31982 19.4138 10.4976 19.4138C15.6753 19.4138 19.8726 15.2166 19.8726 10.0388C19.8726 4.86108 15.6751 0.663818 10.4976 0.663818Z" fill="#A3A3A3"/>
<path d="M10.1671 7.64521C10.7597 7.82353 11.2069 7.94482 11.6048 7.99814C11.8234 8.02744 12.4886 8.1167 12.9489 7.70791C13.5023 7.21631 13.3599 6.40635 13.313 6.14014C13.2421 5.7374 13.1077 5.40967 12.9575 5.13662C13.1849 5.33389 13.4597 5.48525 13.8015 5.53174C13.8706 5.54111 13.9398 5.5458 14.0093 5.5458C14.5111 5.5458 15.0267 5.30049 15.5784 4.80049C16.1064 4.32217 16.4933 3.89951 16.7612 3.50811L15.7138 2.79092C15.5056 3.09502 15.1734 3.45459 14.7263 3.85947C14.4159 4.14072 14.1343 4.29541 13.9728 4.27354C13.7579 4.24424 13.5075 3.84854 13.3247 3.55967C13.0587 3.13955 12.7839 2.70498 12.2663 2.6751C12.0527 2.66279 11.7359 2.72471 11.4403 3.09014C11.0919 3.52119 10.9642 3.93896 11.0497 4.36729C11.1208 4.72314 11.3257 5.00068 11.5237 5.26885C11.7478 5.57217 11.9794 5.88584 12.0628 6.35967C12.1007 6.57529 12.0956 6.69443 12.0874 6.75107C12.0282 6.75928 11.9003 6.76396 11.6562 6.72139C11.3552 6.66885 10.9896 6.5667 10.5331 6.4292C9.90246 6.23936 9.34191 6.28018 8.81925 6.55342C8.39406 6.77588 8.06789 7.11553 7.75226 7.44424C7.58742 7.61592 7.42765 7.78213 7.25851 7.929C7.26652 7.89678 7.2755 7.86299 7.28527 7.82783C7.37062 7.52158 7.47355 7.28604 7.52296 7.19971C7.73117 7.00283 7.87101 6.66377 7.69914 6.23486C7.6257 6.05127 7.50812 5.87178 7.35929 5.64424C7.21808 5.42842 7.05812 5.18389 6.90656 4.89033C6.84211 4.76533 6.83273 4.70361 6.83156 4.68603C6.89093 4.57861 7.2505 4.36221 7.51437 4.20322C7.63976 4.12764 7.78214 4.04189 7.92902 3.94893C8.40832 3.64541 8.87082 2.96006 8.35128 1.41943L7.14836 1.8251C7.38253 2.51963 7.31789 2.8333 7.24992 2.87646C7.11496 2.96182 6.98507 3.04014 6.85949 3.11572C6.42453 3.37764 6.04894 3.60381 5.80968 3.9333C5.48957 4.37412 5.47902 4.89189 5.77882 5.47256C5.96046 5.82432 6.14718 6.10986 6.29718 6.33916C6.34152 6.40693 6.39113 6.48291 6.43273 6.54971C6.3882 6.62568 6.34406 6.71416 6.29835 6.81787C6.21007 7.01865 6.12531 7.26006 6.05968 7.49775C5.98175 7.77979 5.93429 8.03838 5.91886 8.2665C5.89425 8.62959 5.95226 8.91182 6.09621 9.12939C6.2589 9.37529 6.52277 9.51826 6.82023 9.52139H6.83058C7.04132 9.52139 7.26105 9.45322 7.50207 9.31338C7.98839 9.03115 8.34953 8.65517 8.66808 8.32353C9.26652 7.70029 9.53488 7.45478 10.1671 7.64521ZM17.2275 12.7862C17.0415 11.5894 15.8667 11.0692 14.6228 10.5187C14.447 10.4409 14.2653 10.3604 14.0831 10.2769C13.7778 10.1368 13.5081 10.0595 13.2587 10.0399C12.9444 10.0155 12.6638 10.0831 12.4239 10.2409C11.6892 10.7245 11.5739 11.8517 11.6183 13.7624C11.6232 13.9733 11.6196 14.1276 11.6126 14.2395C11.3925 14.1763 11.1116 14.1103 10.7819 14.1343C10.323 14.1679 9.89132 14.3718 9.49875 14.7403C9.17648 15.0429 8.99269 15.4425 8.96711 15.896C8.94738 16.2479 9.02257 16.6395 9.19054 17.0603C9.42746 17.6534 9.855 18.3265 10.4612 19.0606L11.4402 18.2522C10.9251 17.6286 10.5548 17.0536 10.3696 16.5896C10.1009 15.9165 10.3017 15.728 10.3677 15.6659C10.7509 15.3062 10.9917 15.3784 11.3564 15.4876C11.6368 15.5716 12.0607 15.6985 12.44 15.4093C12.838 15.1058 12.9064 14.5429 12.8874 13.7329C12.8679 12.8964 12.8853 12.3159 12.9417 11.9063C13.0027 11.464 13.0954 11.3323 13.1187 11.3056C13.1491 11.3024 13.2718 11.3017 13.554 11.431C13.7437 11.5179 13.9292 11.6001 14.1087 11.6794C15.0663 12.1034 15.8935 12.4694 15.9728 12.981C16.0202 13.2864 16.1962 13.8622 17.1724 15.3298L18.2294 14.6267C17.3402 13.2895 17.2388 12.8591 17.2275 12.7862Z" fill="#A3A3A3"/>
</svg>
