<svg width="40" height="40" viewBox="0 0 40 40" fill="none" xmlns="http://www.w3.org/2000/svg">
<path d="M20 3C29.3898 3 37 10.6102 37 20C37 29.3898 29.3898 37 20 37C10.6102 37 3 29.3898 3 20C3 10.6102 10.6102 3 20 3Z" fill="#1E7EFC"/>
<path d="M14.0968 16.3456C17.3553 13.2181 22.6447 13.2181 25.9032 16.3456L26.2955 16.7249C26.46 16.8803 26.46 17.1352 26.2955 17.2907L24.9541 18.5777C24.9346 18.5969 24.9114 18.6122 24.8859 18.6226C24.8604 18.633 24.8331 18.6383 24.8054 18.6383C24.7778 18.6383 24.7505 18.633 24.725 18.6226C24.6994 18.6122 24.6763 18.5969 24.6568 18.5777L24.1189 18.0617C21.8412 15.8793 18.1588 15.8793 15.881 18.0617L15.3053 18.615C15.2858 18.6342 15.2626 18.6495 15.2371 18.6599C15.2116 18.6703 15.1842 18.6756 15.1566 18.6756C15.129 18.6756 15.1016 18.6703 15.0761 18.6599C15.0506 18.6495 15.0274 18.6342 15.0079 18.615L13.6666 17.328C13.5021 17.1725 13.5021 16.9176 13.6666 16.7622L14.0968 16.3456ZM28.6808 19.0067L29.8766 20.1508C30.0411 20.3062 30.0411 20.5611 29.8766 20.7166L24.4922 25.8834C24.3277 26.0389 24.062 26.0389 23.9038 25.8834L20.0823 22.215C20.0443 22.1777 19.9747 22.1777 19.9367 22.215L16.1152 25.8834C15.9506 26.0389 15.6849 26.0389 15.5267 25.8834L10.1234 20.7166C9.95887 20.5611 9.95887 20.3062 10.1234 20.1508L11.3192 19.0067C11.4837 18.8513 11.7494 18.8513 11.9076 19.0067L15.7292 22.6751C15.7672 22.7124 15.8368 22.7124 15.8747 22.6751L19.6963 19.0067C19.8608 18.8513 20.1265 18.8513 20.2847 19.0067L24.1063 22.6751C24.1443 22.7124 24.2139 22.7124 24.2518 22.6751L28.0734 19.0067C28.2506 18.8513 28.5163 18.8513 28.6808 19.0067Z" fill="white"/>
</svg>
