<svg width="16" height="16" viewBox="0 0 16 16" fill="none" xmlns="http://www.w3.org/2000/svg">
<path d="M12.7491 5.18778L10.8144 3.25168L11.8151 2.25028C12.1486 1.91657 12.6824 1.91657 12.9492 2.25028L13.7498 3.05148C14.0834 3.38528 14.0834 3.91938 13.7498 4.18648L12.7491 5.18778ZM7.1453 10.7956L5.2106 8.85948L10.4808 3.65238L12.4155 5.58828L7.1453 10.7956ZM3.6763 12.3978L4.8771 9.26008L6.8118 11.1961L3.6763 12.3978ZM11.1327 13.0654C11.3997 13.0654 11.5999 13.2656 11.5999 13.5326C11.5999 13.7997 11.3997 14 11.1327 14H2.4673C2.1748 14 2 13.7997 2 13.5326C2 13.2656 2.2002 13.0654 2.4673 13.0654H11.1327Z" fill="#FFA318"/>
</svg>
