<svg width="20" height="20" viewBox="0 0 20 20" fill="none" xmlns="http://www.w3.org/2000/svg">
<g clip-path="url(#clip0_70_230)">
<path d="M17.0015 1.60921C17.7711 1.60921 18.4008 2.2389 18.4008 3.00851V17.0015C18.4008 17.7711 17.7711 18.4008 17.0015 18.4008H3.00851C2.2389 18.4008 1.60921 17.7711 1.60921 17.0015V3.00851C1.60921 2.2389 2.2389 1.60921 3.00851 1.60921H17.0015ZM17.0015 0.0100098H3.00851C1.34934 0.0100098 0.0100098 1.34934 0.0100098 3.00851V17.0015C0.0100098 18.6607 1.34934 20 3.00851 20H17.0015C18.6607 20 20 18.6607 20 17.0015V3.00851C20 1.34934 18.6607 0.0100098 17.0015 0.0100098Z" fill="#FFA318"/>
<path d="M4.86768 8.82561V14.3928C4.86768 14.8426 5.2275 15.2124 5.66728 15.2124C6.10706 15.2124 6.46688 14.8426 6.46688 14.3928V8.82561C6.46688 8.37583 6.10706 8.00602 5.66728 8.00602C5.2275 8.00602 4.86768 8.37583 4.86768 8.82561ZM13.8832 9.56524V14.4528C13.8832 14.8726 14.243 15.2124 14.6828 15.2124C15.1225 15.2124 15.4824 14.8726 15.4824 14.4528V9.56524C15.4824 9.14545 15.1225 8.80562 14.6828 8.80562C14.243 8.81561 13.8832 9.14545 13.8832 9.56524ZM9.37542 5.56724V14.4528C9.37542 14.8726 9.73524 15.2124 10.175 15.2124C10.6148 15.2124 10.9746 14.8726 10.9746 14.4528V5.56724C10.9746 5.14745 10.6148 4.80762 10.175 4.80762C9.73524 4.80762 9.37542 5.14745 9.37542 5.56724Z" fill="#FFA318"/>
</g>
<defs>
<clipPath id="clip0_70_230">
<rect width="20" height="20" fill="white"/>
</clipPath>
</defs>
</svg>
