<svg width="16" height="16" viewBox="0 0 16 16" fill="none" xmlns="http://www.w3.org/2000/svg">
<g clip-path="url(#clip0_73_166)">
<path d="M14.6667 1.33333V10.6667H5.33333V1.33333H14.6667ZM0.666672 16H11.3333C11.5101 16 11.6797 15.9298 11.8047 15.8047C11.9298 15.6797 12 15.5101 12 15.3333V14C12.0004 13.9122 11.9835 13.8251 11.9502 13.7439C11.9169 13.6626 11.8678 13.5888 11.8059 13.5265C11.7439 13.4643 11.6703 13.4149 11.5892 13.3812C11.5081 13.3475 11.4212 13.3301 11.3333 13.3301C11.2455 13.3301 11.1586 13.3475 11.0775 13.3812C10.9964 13.4149 10.9227 13.4643 10.8608 13.5265C10.7988 13.5888 10.7498 13.6626 10.7165 13.7439C10.6832 13.8251 10.6662 13.9122 10.6667 14V14.6667H1.33333V5.33333H2C2.08782 5.33375 2.17486 5.31682 2.25611 5.28351C2.33737 5.2502 2.41125 5.20116 2.47349 5.13921C2.53574 5.07726 2.58514 5.00363 2.61884 4.92253C2.65255 4.84144 2.6699 4.75448 2.6699 4.66666C2.6699 4.57884 2.65255 4.49189 2.61884 4.41079C2.58514 4.3297 2.53574 4.25606 2.47349 4.19412C2.41125 4.13217 2.33737 4.08313 2.25611 4.04982C2.17486 4.0165 2.08782 3.99957 2 4H0.666672C0.48986 4 0.320289 4.07024 0.195264 4.19526C0.0702391 4.32029 0 4.48986 0 4.66667V15.3333C0 15.5101 0.0702391 15.6797 0.195264 15.8047C0.320289 15.9298 0.48986 16 0.666672 16ZM14.6667 0H5.33333C5.15823 0 4.98485 0.0344875 4.82309 0.101494C4.66132 0.1685 4.51433 0.266712 4.39052 0.390523C4.26671 0.514334 4.1685 0.661319 4.10149 0.823086C4.03449 0.984852 4 1.15823 4 1.33333V10.6667C4 10.8418 4.03449 11.0151 4.10149 11.1769C4.1685 11.3387 4.26671 11.4857 4.39052 11.6095C4.51433 11.7333 4.66132 11.8315 4.82309 11.8985C4.98485 11.9655 5.15823 12 5.33333 12H14.6667C15.0203 12 15.3594 11.8595 15.6095 11.6095C15.8595 11.3594 16 11.0203 16 10.6667V1.33333C16 0.979707 15.8595 0.64057 15.6095 0.390523C15.3594 0.140475 15.0203 0 14.6667 0Z" fill="#FFA318"/>
</g>
<defs>
<clipPath id="clip0_73_166">
<rect width="16" height="16" fill="white" transform="matrix(-1 0 0 1 16 0)"/>
</clipPath>
</defs>
</svg>
