<svg width="20" height="20" viewBox="0 0 20 20" fill="none" xmlns="http://www.w3.org/2000/svg">
<path d="M13.4762 3.79484C10.8027 1.12144 6.46826 1.12144 3.79486 3.79486C1.12144 6.46828 1.12144 10.8027 3.79486 13.4761C6.23154 15.9128 10.0479 16.1281 12.729 14.123L16.6953 18.0894C16.8563 18.2504 17.1198 18.2504 17.2808 18.0894L18.0894 17.2808C18.2504 17.1197 18.2504 16.8563 18.0894 16.6953L14.1231 12.7289C16.1282 10.0478 15.9128 6.23154 13.4762 3.79484ZM12.508 12.508C10.3693 14.6467 6.90173 14.6467 4.76298 12.508C2.62425 10.3693 2.62425 6.9017 4.76298 4.76297C6.90171 2.62424 10.3693 2.62422 12.508 4.76297C14.6468 6.90172 14.6468 10.3693 12.508 12.508H12.508Z" fill="#A3A3A3" fill-opacity="0.5"/>
</svg>
