<svg width="40" height="41" viewBox="0 0 40 41" fill="none" xmlns="http://www.w3.org/2000/svg">
<g clip-path="url(#clip0_264_129)">
<circle cx="20" cy="20.9348" r="19.5" stroke="#A3A3A3" stroke-opacity="0.2"/>
<path d="M13.0398 23.8122L19.1001 29.8725C19.1383 29.9105 19.1835 29.9408 19.2331 29.9619C19.2346 29.9626 19.236 29.9636 19.2377 29.9643C19.2599 29.9733 19.2828 29.9804 19.3061 29.9855C19.3103 29.9865 19.3143 29.9883 19.3186 29.9892C19.3467 29.9948 19.3752 29.9977 19.4036 29.9977L20.2612 29.9977C20.3288 29.9977 20.3953 29.9815 20.4555 29.9507C20.5156 29.9199 20.5675 29.8752 20.607 29.8204L26.6154 23.8122C26.6552 23.7725 26.6868 23.7252 26.7083 23.6732C26.7299 23.6212 26.741 23.5655 26.741 23.5092C26.741 23.453 26.7299 23.3972 26.7083 23.3453C26.6868 23.2933 26.6552 23.246 26.6154 23.2063L26.0094 22.6001C25.929 22.5198 25.8201 22.4747 25.7064 22.4747C25.5928 22.4747 25.4838 22.5198 25.4034 22.6001L20.6898 27.3139L20.6898 12.4286C20.6898 12.3723 20.6788 12.3166 20.6572 12.2646C20.6357 12.2126 20.6041 12.1653 20.5643 12.1255C20.5245 12.0857 20.4773 12.0541 20.4253 12.0326C20.3733 12.011 20.3175 12 20.2612 12L19.4041 12C19.3479 12 19.2921 12.0111 19.2401 12.0326C19.1881 12.0542 19.1409 12.0857 19.1011 12.1255C19.0613 12.1653 19.0298 12.2126 19.0082 12.2646C18.9867 12.3166 18.9756 12.3723 18.9757 12.4286L18.9757 27.3238L14.2519 22.6001C14.1716 22.5198 14.0626 22.4747 13.949 22.4747C13.8353 22.4747 13.7263 22.5198 13.646 22.6001L13.04 23.2062C13.0002 23.246 12.9686 23.2932 12.947 23.3452C12.9255 23.3972 12.9144 23.4529 12.9143 23.5092C12.9143 23.5655 12.9254 23.6212 12.9469 23.6732C12.9685 23.7252 13 23.7724 13.0398 23.8122Z" fill="#A3A3A3"/>
</g>
<defs>
<clipPath id="clip0_264_129">
<rect width="40" height="41" fill="white" transform="translate(40 41) rotate(-180)"/>
</clipPath>
</defs>
</svg>
