<svg width="16" height="16" viewBox="0 0 16 16" fill="none" xmlns="http://www.w3.org/2000/svg">
<g clip-path="url(#clip0_264_50)">
<path d="M7.11565 12.4207H8.44177V11.0946H7.11565V12.4207ZM9.14953 8.26542C8.486 8.70777 8.17682 9.23765 8.17682 9.81271V10.2104H7.11518V9.72424C7.07094 8.92848 7.46906 8.22118 8.17635 7.69036C8.97165 7.11624 9.36977 6.54118 9.2813 6.01036C9.19283 5.21506 8.75094 4.77271 7.91094 4.72848C6.93824 4.68424 6.31941 5.2593 6.09871 6.45271L4.90482 6.14306C5.25871 4.37506 6.36365 3.53506 8.13212 3.5793C9.67941 3.66777 10.4752 4.4193 10.6516 5.87812C10.6964 6.76236 10.2098 7.55812 9.14906 8.26542H9.14953ZM7.99988 0.926594C4.10953 0.927064 0.926942 4.10965 0.926942 8.00001C0.926942 11.8908 4.10953 15.0739 7.99988 15.0739C11.8902 15.0739 15.0728 11.8904 15.0728 8.00001C15.0728 4.10965 11.8907 0.927064 7.99988 0.927064V0.926594ZM7.99988 15.9572C3.62341 15.9577 0.0422363 12.3765 0.0422363 8.00001C0.0422363 3.62353 3.62341 0.0423584 7.99988 0.0423584C12.3764 0.0423584 15.9575 3.62353 15.9575 8.00001C15.9575 12.3765 12.3764 15.9577 7.99988 15.9577V15.9572Z" fill="#A3A3A3" fill-opacity="0.6"/>
</g>
<defs>
<clipPath id="clip0_264_50">
<rect width="16" height="16" fill="white"/>
</clipPath>
</defs>
</svg>
