<svg width="40" height="40" viewBox="0 0 40 40" fill="none" xmlns="http://www.w3.org/2000/svg">
<path d="M13.271 32.1941L17.4033 33.2931V31.8563L17.7411 31.5186H20.0989V34.3943H17.57L14.451 33.0409L13.271 32.1941Z" fill="#CDBDB2"/>
<path d="M26.7602 32.1941L22.7135 33.2931V31.8563L22.3757 31.5186H20.0156V34.3943H22.5446L25.6635 33.0409L26.7602 32.1941Z" fill="#CDBDB2"/>
<path d="M17.7411 29.0661L17.4033 31.8586L17.8244 31.5208H22.2067L22.7134 31.8586L22.3756 29.0661L21.7001 28.645L18.3289 28.7283L17.7389 29.0661H17.7411Z" fill="#393939"/>
<path d="M15.4644 10.2126L17.4866 14.9463L18.4144 28.7282H21.7023L22.7134 14.9463L24.5668 10.2126H15.4666H15.4644Z" fill="#F89C35"/>
<path d="M6.612 20.6122L4.25195 27.4581L10.1521 27.1203H13.9466V24.1635L13.7777 18.0742L12.9355 18.7498L6.612 20.6122Z" fill="#F89D35"/>
<path d="M11.0798 21.3711L17.9933 21.5422L17.2344 25.0936L13.9466 24.2468L11.0798 21.3733V21.3711Z" fill="#D87C30"/>
<path d="M11.0798 21.4568L13.9466 24.1636V26.8682L11.0798 21.4568Z" fill="#EA8D3A"/>
<path d="M13.9465 24.2468L17.3177 25.0936L18.4144 28.7282L17.6555 29.1516L13.9465 26.9537V24.2468Z" fill="#F89D35"/>
<path d="M13.9466 26.9539L13.271 32.1942L17.7389 29.0662L13.9466 26.9539Z" fill="#EB8F35"/>
<path d="M17.9934 21.5422L18.4145 28.7282L17.1489 25.0508L17.9934 21.5422Z" fill="#EA8E3A"/>
<path d="M10.0688 27.0372L13.9467 26.9539L13.2711 32.1942L10.0688 27.0372Z" fill="#D87C30"/>
<path d="M6.10756 34.4776L13.271 32.1941L10.0688 27.0371L4.25195 27.4605L6.10756 34.4776Z" fill="#EB8F35"/>
<path d="M17.4866 14.9463L13.861 17.9932L11.0798 21.3712L17.9933 21.6234L17.4866 14.9441V14.9463Z" fill="#E8821E"/>
<path d="M13.271 32.1941L17.7389 29.0662L17.4011 31.773V33.2953L14.3677 32.7031L13.271 32.1941ZM26.7602 32.1941L22.3756 29.0662L22.7134 31.773V33.2953L25.7468 32.7031L26.7602 32.1941Z" fill="#DFCEC3"/>
<path d="M16.1379 23.0625L17.0657 25.0082L13.7778 24.1637L16.1379 23.0625Z" fill="#393939"/>
<path d="M6.02197 6.23804L17.4867 14.9463L15.5477 10.2127L6.02197 6.23804Z" fill="#E88F35"/>
<path d="M6.02197 6.23804L4.50415 10.8883L5.34863 15.962L4.75862 16.2998L5.60085 17.0609L4.92527 17.6532L5.85307 18.4977L5.26306 19.0044L6.61423 20.6956L12.9355 18.7521C16.0252 16.272 17.5422 15.0034 17.4867 14.9463C17.4311 14.8908 13.6103 11.988 6.02422 6.23804H6.02197Z" fill="#8E5A30"/>
<path d="M33.4193 20.6122L35.7794 27.4581L29.8793 27.1203H26.0847V24.1635L26.2536 18.0742L27.0958 18.7498L33.4193 20.6122Z" fill="#F89D35"/>
<path d="M28.9513 21.3711L22.0378 21.5422L22.7967 25.0936L26.0846 24.2468L28.9513 21.3733V21.3711Z" fill="#D87C30"/>
<path d="M28.9515 21.4568L26.0847 24.1636V26.8682L28.9515 21.4568Z" fill="#EA8D3A"/>
<path d="M26.0846 24.2468L22.7134 25.0936L21.6167 28.7282L22.3756 29.1516L26.0846 26.9537V24.2468Z" fill="#F89D35"/>
<path d="M26.0847 26.9539L26.7603 32.1942L22.3757 29.1518L26.0847 26.9539Z" fill="#EB8F35"/>
<path d="M22.0378 21.5422L21.6167 28.7282L22.8823 25.0508L22.0378 21.5422Z" fill="#EA8E3A"/>
<path d="M29.9626 27.0372L26.0847 26.9539L26.7603 32.1942L29.9626 27.0372Z" fill="#D87C30"/>
<path d="M33.9237 34.4776L26.7603 32.1941L29.9625 27.0371L35.7793 27.4605L33.9237 34.4776Z" fill="#EB8F35"/>
<path d="M22.5445 14.9463L26.1702 17.9909L28.9513 21.3734L22.0378 21.6256L22.5445 14.9463Z" fill="#E8821E"/>
<path d="M23.8936 23.0625L22.9658 25.0082L26.2537 24.1637L23.8936 23.0625Z" fill="#393939"/>
<path d="M34.0094 6.23804L22.5447 14.9463L24.4836 10.2127L34.0094 6.23804Z" fill="#E88F35"/>
<path d="M34.0094 6.23804L35.5272 10.8883L34.6827 15.962L35.2727 16.2998L34.4305 17.0609L35.1061 17.6532L34.1783 18.4977L34.7683 19.0044L33.4171 20.6956L27.0959 18.7521C24.0062 16.272 22.4891 15.0034 22.5447 14.9463C22.6002 14.8908 26.421 11.988 34.0071 6.23804H34.0094Z" fill="#8E5A30"/>
</svg>
