<svg width="40" height="41" viewBox="0 0 40 41" fill="none" xmlns="http://www.w3.org/2000/svg">
<circle cx="20" cy="20.9348" r="19.5" stroke="#A3A3A3" stroke-opacity="0.2"/>
<path d="M18.1538 28.8709L18.1538 12.8116C18.1538 12.7101 18.0707 12.627 17.9692 12.627L16.5846 12.627C16.483 12.627 16.4 12.7101 16.4 12.8116L16.4 26.7778L12.1767 23.4477C12.1493 23.4264 12.1166 23.4132 12.0821 23.4095C12.0476 23.4059 12.0127 23.412 11.9815 23.4271C11.9503 23.4423 11.924 23.4659 11.9055 23.4952C11.887 23.5245 11.8771 23.5585 11.8769 23.5932L11.8769 25.2661C11.8769 25.3791 11.9278 25.4855 12.0176 25.5571L16.9586 29.4525C17.443 29.8332 18.1538 29.4894 18.1538 28.8709ZM23.6 29.427L23.6 15.4609L27.8232 18.7909C27.8506 18.8123 27.8834 18.8255 27.9179 18.8291C27.9524 18.8327 27.9872 18.8266 28.0184 18.8115C28.0496 18.7964 28.076 18.7728 28.0944 18.7434C28.1129 18.7141 28.1228 18.6802 28.123 18.6455L28.123 16.9725C28.123 16.8595 28.0725 16.7532 27.9824 16.6815L23.0417 12.7861C22.5569 12.4055 21.8461 12.7492 21.8461 13.3655L21.8461 29.427C21.8461 29.5285 21.9292 29.6116 22.0307 29.6116L23.4154 29.6116C23.5169 29.6116 23.6 29.5285 23.6 29.427Z" fill="#A3A3A3"/>
</svg>
