<svg width="25" height="24" viewBox="0 0 25 24" fill="none" xmlns="http://www.w3.org/2000/svg">
<g clip-path="url(#clip0_70_215)">
<path d="M24.9536 11.9957C24.9536 18.5903 19.6079 23.936 13.0133 23.936C6.41891 23.936 1.073 18.5903 1.073 11.9957C1.073 5.40121 6.41891 0.0554199 13.0133 0.0554199C19.6079 0.0554199 24.9536 5.40121 24.9536 11.9957Z" fill="#1BA27A"/>
<path d="M18.6173 6.07642H7.31104V8.80597H11.5994V12.8179H14.3289V8.80597H18.6173V6.07642Z" fill="white"/>
<path d="M12.99 13.2453C9.44254 13.2453 6.56648 12.6839 6.56648 11.9913C6.56648 11.2987 9.44242 10.7372 12.99 10.7372C16.5375 10.7372 19.4134 11.2987 19.4134 11.9913C19.4134 12.6839 16.5375 13.2453 12.99 13.2453ZM20.2025 12.2003C20.2025 11.3072 16.9734 10.5833 12.99 10.5833C9.00672 10.5833 5.77734 11.3072 5.77734 12.2003C5.77734 12.9868 8.28134 13.6421 11.5994 13.7873V19.5466H14.3287V13.7896C17.6724 13.6489 20.2025 12.9909 20.2025 12.2003Z" fill="white"/>
</g>
<defs>
<clipPath id="clip0_70_215">
<rect width="24" height="24" fill="white" transform="translate(0.975098)"/>
</clipPath>
</defs>
</svg>
