<svg width="26" height="22" viewBox="0 0 26 22" fill="none" xmlns="http://www.w3.org/2000/svg">
<path d="M1.75 11.1618C2.6125 12.4415 5.64531 14.0587 5.64531 14.0587L2.7625 14.0962C3.10799 14.7092 3.55861 15.2566 4.09375 15.7134C5.13906 16.7306 8.06406 17.6353 8.06406 17.6353C6.96215 18.408 5.78977 19.075 4.5625 19.6275C3.37166 20.0041 2.13892 20.2324 0.892188 20.3072C0.892188 20.3072 4.22969 22.3931 9.35313 21.8868C14.4766 21.3806 18.0109 18.9712 20.7391 14.9634C23.4672 10.9556 23.2281 5.74309 23.2281 5.74309C23.2281 5.74309 23.5281 5.4009 24.2547 4.73059C24.5999 4.43003 24.9139 4.09554 25.1922 3.73215L23.3828 3.92903L24.5594 1.81497C24.5594 1.81497 23.8422 2.14309 23.3453 2.33059C22.8484 2.51809 22.1828 2.69622 22.1828 2.69622C21.6776 2.1186 21.06 1.6499 20.3677 1.31869C19.6755 0.987467 18.923 0.800662 18.1563 0.769653C17.3146 0.778445 16.4872 0.987319 15.7422 1.37903C11.9219 3.29622 13.1594 7.61809 13.1594 7.61809C10.6751 7.56097 8.23789 6.9288 6.03906 5.77122C2.18125 3.8259 1.24375 2.05872 1.24375 2.05872C1.24375 2.05872 0.648438 3.10872 0.910938 5.06809C1.17344 7.02747 3.01562 9.53997 3.01562 9.53997L0.8125 8.64465C0.929956 9.54398 1.25055 10.4048 1.75 11.1618Z" fill="#A3A3A3"/>
</svg>
