<svg width="28" height="27" viewBox="0 0 28 27" fill="none" xmlns="http://www.w3.org/2000/svg">
<path d="M14 0.658203C6.80335 0.658203 0.968506 6.49223 0.968506 13.6897C0.968506 19.4472 4.70284 24.3323 9.88041 26.0549C10.532 26.1755 10.7714 25.7723 10.7714 25.4278C10.7714 25.1175 10.7592 24.0904 10.7535 23.0015C7.12751 23.7899 6.36272 21.4638 6.36272 21.4638C5.76979 19.9578 4.91623 19.5571 4.91623 19.5571C3.73362 18.7483 5.00582 18.7646 5.00582 18.7646C6.31386 18.8567 7.00289 20.1077 7.00289 20.1077C8.16514 22.0999 10.0514 21.524 10.7951 21.1909C10.9115 20.3488 11.2495 19.7738 11.6226 19.448C8.72794 19.1189 5.68509 18.0007 5.68509 13.008C5.68509 11.5851 6.19413 10.4229 7.02814 9.50983C6.89294 9.1816 6.44661 7.85647 7.15439 6.06138C7.15439 6.06138 8.24903 5.71116 10.7389 7.39711C11.8021 7.10769 12.8989 6.96008 14.0008 6.95811C15.1077 6.963 16.2235 7.10797 17.2652 7.39711C19.7526 5.71116 20.8448 6.06138 20.8448 6.06138C21.5542 7.85647 21.1078 9.1816 20.9726 9.50983C21.8083 10.422 22.3141 11.5851 22.3141 13.008C22.3141 18.0129 19.2655 19.1148 16.3636 19.4382C16.8311 19.843 17.2473 20.6355 17.2473 21.8515C17.2473 23.5952 17.2318 24.9986 17.2318 25.4278C17.2318 25.7747 17.4664 26.1812 18.1269 26.0533C23.302 24.3283 27.0315 19.4455 27.0315 13.6897C27.0315 6.49223 21.1966 0.658203 14 0.658203Z" fill="#A3A3A3"/>
</svg>
