<svg width="24" height="27" viewBox="0 0 24 27" fill="none" xmlns="http://www.w3.org/2000/svg">
<path d="M15.6803 12.7246C15.6803 13.5096 15.1012 14.153 14.3677 14.153C13.6471 14.153 13.0552 13.5096 13.0552 12.7246C13.0552 11.9397 13.6343 11.2963 14.3677 11.2963C15.1012 11.2963 15.6803 11.9397 15.6803 12.7246ZM9.6709 11.2963C8.93742 11.2963 8.35836 11.9397 8.35836 12.7246C8.35836 13.5096 8.95029 14.153 9.6709 14.153C10.4044 14.153 10.9834 13.5096 10.9834 12.7246C10.9963 11.9397 10.4044 11.2963 9.6709 11.2963ZM23.2596 3.15082V26.2361C20.0177 23.3712 21.0545 24.3195 17.2888 20.8186L17.9708 23.1992H3.37843C1.92434 23.1992 0.740479 22.0154 0.740479 20.5484V3.15082C0.740479 1.68386 1.92434 0.5 3.37843 0.5H20.6216C22.0757 0.5 23.2596 1.68386 23.2596 3.15082ZM19.5922 15.3497C19.5922 11.2062 17.7392 7.84765 17.7392 7.84765C15.8862 6.4579 14.1232 6.49651 14.1232 6.49651L13.9431 6.7024C16.1307 7.37153 17.1472 8.33664 17.1472 8.33664C14.0905 6.66133 10.4999 6.66103 7.5348 7.96346C7.05869 8.18222 6.77559 8.33664 6.77559 8.33664C6.77559 8.33664 7.84364 7.32006 10.1599 6.65092L10.0312 6.49651C10.0312 6.49651 8.26828 6.4579 6.41528 7.84765C6.41528 7.84765 4.56229 11.2062 4.56229 15.3497C4.56229 15.3497 5.6432 17.2156 8.48704 17.3057C8.48704 17.3057 8.96316 16.7266 9.3492 16.2376C7.71496 15.7486 7.09729 14.7192 7.09729 14.7192C7.28659 14.8517 7.59874 15.0234 7.62488 15.0409C9.79687 16.2572 12.8821 16.6557 15.6545 15.4913C16.1049 15.324 16.6068 15.0795 17.1344 14.7321C17.1344 14.7321 16.491 15.7872 14.8052 16.2634C15.1913 16.7523 15.6545 17.3057 15.6545 17.3057C18.4984 17.2156 19.5922 15.3497 19.5922 15.3497Z" fill="#A3A3A3"/>
</svg>
