<svg width="26" height="26" viewBox="0 0 26 26" fill="none" xmlns="http://www.w3.org/2000/svg">
<path d="M17.1164 19.1425L19.1818 9.40623C19.3644 8.54933 18.8725 8.21212 18.3105 8.42254L6.17163 13.1009C5.34257 13.4238 5.35697 13.8877 6.03134 14.0981L9.13622 15.0675L16.344 10.5293C16.6812 10.3045 16.9905 10.4313 16.7378 10.6561L10.9076 15.9244L10.6828 19.1281C11.0056 19.1281 11.1468 18.9879 11.3149 18.8188L12.8318 17.3576L15.9789 19.6757C16.5553 19.9985 16.9627 19.8304 17.1173 19.1416L17.1164 19.1425ZM25.5884 13.368C25.5884 20.3222 19.9542 25.9565 13 25.9565C6.04575 25.9565 0.411499 20.3222 0.411499 13.368C0.411499 6.41379 6.04575 0.779541 13 0.779541C19.9542 0.779541 25.5884 6.41379 25.5884 13.368Z" fill="#A3A3A3"/>
</svg>
